<mxfile host="app.diagrams.net" modified="2021-04-26T09:32:43.207Z" agent="5.0 (Windows)" etag="UWtSx3L9EDE1MpGUzYAa" version="14.6.6" type="github">
  <diagram id="aE6t-q_9d1_Y1S6EbVpj" name="Page-1">
    <mxGraphModel dx="1422" dy="791" grid="1" gridSize="10" guides="1" tooltips="1" connect="1" arrows="1" fold="1" page="1" pageScale="1" pageWidth="827" pageHeight="1169" math="0" shadow="0">
      <root>
        <mxCell id="0" />
        <mxCell id="1" parent="0" />
        <mxCell id="Agc5lLFJwl8MDmnhifm_-4" value="" style="rounded=0;whiteSpace=wrap;html=1;" vertex="1" parent="1">
          <mxGeometry x="220" y="215" width="310" height="215" as="geometry" />
        </mxCell>
        <mxCell id="Agc5lLFJwl8MDmnhifm_-3" value="Users" style="text;html=1;strokeColor=none;fillColor=none;align=center;verticalAlign=middle;whiteSpace=wrap;rounded=0;" vertex="1" parent="1">
          <mxGeometry x="265" y="215" width="250" height="55" as="geometry" />
        </mxCell>
        <mxCell id="Agc5lLFJwl8MDmnhifm_-5" value="ID" style="text;html=1;strokeColor=none;fillColor=none;align=center;verticalAlign=middle;whiteSpace=wrap;rounded=0;" vertex="1" parent="1">
          <mxGeometry x="235" y="260" width="40" height="20" as="geometry" />
        </mxCell>
        <mxCell id="Agc5lLFJwl8MDmnhifm_-6" value="User Name" style="text;html=1;strokeColor=none;fillColor=none;align=center;verticalAlign=middle;whiteSpace=wrap;rounded=0;" vertex="1" parent="1">
          <mxGeometry x="280" y="260" width="100" height="20" as="geometry" />
        </mxCell>
        <mxCell id="Agc5lLFJwl8MDmnhifm_-10" value="" style="endArrow=none;html=1;entryX=1.006;entryY=0.209;entryDx=0;entryDy=0;entryPerimeter=0;" edge="1" parent="1" target="Agc5lLFJwl8MDmnhifm_-4">
          <mxGeometry width="50" height="50" relative="1" as="geometry">
            <mxPoint x="220" y="260" as="sourcePoint" />
            <mxPoint x="270" y="210" as="targetPoint" />
          </mxGeometry>
        </mxCell>
        <mxCell id="Agc5lLFJwl8MDmnhifm_-11" value="" style="endArrow=none;html=1;exitX=0.229;exitY=1.014;exitDx=0;exitDy=0;exitPerimeter=0;" edge="1" parent="1" source="Agc5lLFJwl8MDmnhifm_-4">
          <mxGeometry width="50" height="50" relative="1" as="geometry">
            <mxPoint x="240" y="310" as="sourcePoint" />
            <mxPoint x="290" y="260" as="targetPoint" />
          </mxGeometry>
        </mxCell>
        <mxCell id="Agc5lLFJwl8MDmnhifm_-12" value="1" style="text;html=1;strokeColor=none;fillColor=none;align=center;verticalAlign=middle;whiteSpace=wrap;rounded=0;" vertex="1" parent="1">
          <mxGeometry x="235" y="300" width="40" height="20" as="geometry" />
        </mxCell>
        <mxCell id="Agc5lLFJwl8MDmnhifm_-13" value="2" style="text;html=1;strokeColor=none;fillColor=none;align=center;verticalAlign=middle;whiteSpace=wrap;rounded=0;" vertex="1" parent="1">
          <mxGeometry x="235" y="340" width="40" height="20" as="geometry" />
        </mxCell>
        <mxCell id="Agc5lLFJwl8MDmnhifm_-14" value="3" style="text;html=1;strokeColor=none;fillColor=none;align=center;verticalAlign=middle;whiteSpace=wrap;rounded=0;" vertex="1" parent="1">
          <mxGeometry x="235" y="390" width="40" height="20" as="geometry" />
        </mxCell>
        <mxCell id="Agc5lLFJwl8MDmnhifm_-15" value="Nathan" style="text;html=1;strokeColor=none;fillColor=none;align=center;verticalAlign=middle;whiteSpace=wrap;rounded=0;" vertex="1" parent="1">
          <mxGeometry x="300" y="300" width="40" height="20" as="geometry" />
        </mxCell>
        <mxCell id="Agc5lLFJwl8MDmnhifm_-16" value="Jill" style="text;html=1;strokeColor=none;fillColor=none;align=center;verticalAlign=middle;whiteSpace=wrap;rounded=0;" vertex="1" parent="1">
          <mxGeometry x="300" y="340" width="40" height="20" as="geometry" />
        </mxCell>
        <mxCell id="Agc5lLFJwl8MDmnhifm_-17" value="Bob" style="text;html=1;strokeColor=none;fillColor=none;align=center;verticalAlign=middle;whiteSpace=wrap;rounded=0;" vertex="1" parent="1">
          <mxGeometry x="300" y="390" width="40" height="20" as="geometry" />
        </mxCell>
        <mxCell id="Agc5lLFJwl8MDmnhifm_-18" value="" style="rounded=0;whiteSpace=wrap;html=1;" vertex="1" parent="1">
          <mxGeometry x="230" y="523" width="310" height="215" as="geometry" />
        </mxCell>
        <mxCell id="Agc5lLFJwl8MDmnhifm_-20" value="ID" style="text;html=1;strokeColor=none;fillColor=none;align=center;verticalAlign=middle;whiteSpace=wrap;rounded=0;" vertex="1" parent="1">
          <mxGeometry x="245" y="568" width="40" height="20" as="geometry" />
        </mxCell>
        <mxCell id="Agc5lLFJwl8MDmnhifm_-22" value="" style="endArrow=none;html=1;entryX=1.006;entryY=0.209;entryDx=0;entryDy=0;entryPerimeter=0;" edge="1" parent="1" target="Agc5lLFJwl8MDmnhifm_-18">
          <mxGeometry width="50" height="50" relative="1" as="geometry">
            <mxPoint x="230" y="568" as="sourcePoint" />
            <mxPoint x="280" y="518" as="targetPoint" />
          </mxGeometry>
        </mxCell>
        <mxCell id="Agc5lLFJwl8MDmnhifm_-23" value="" style="endArrow=none;html=1;exitX=0.229;exitY=1.014;exitDx=0;exitDy=0;exitPerimeter=0;" edge="1" parent="1" source="Agc5lLFJwl8MDmnhifm_-18">
          <mxGeometry width="50" height="50" relative="1" as="geometry">
            <mxPoint x="250" y="618" as="sourcePoint" />
            <mxPoint x="300" y="568" as="targetPoint" />
          </mxGeometry>
        </mxCell>
        <mxCell id="Agc5lLFJwl8MDmnhifm_-24" value="1" style="text;html=1;strokeColor=none;fillColor=none;align=center;verticalAlign=middle;whiteSpace=wrap;rounded=0;" vertex="1" parent="1">
          <mxGeometry x="245" y="608" width="40" height="20" as="geometry" />
        </mxCell>
        <mxCell id="Agc5lLFJwl8MDmnhifm_-25" value="2" style="text;html=1;strokeColor=none;fillColor=none;align=center;verticalAlign=middle;whiteSpace=wrap;rounded=0;" vertex="1" parent="1">
          <mxGeometry x="245" y="648" width="40" height="20" as="geometry" />
        </mxCell>
        <mxCell id="Agc5lLFJwl8MDmnhifm_-26" value="3" style="text;html=1;strokeColor=none;fillColor=none;align=center;verticalAlign=middle;whiteSpace=wrap;rounded=0;" vertex="1" parent="1">
          <mxGeometry x="245" y="698" width="40" height="20" as="geometry" />
        </mxCell>
        <mxCell id="Agc5lLFJwl8MDmnhifm_-27" value="Build one" style="text;html=1;strokeColor=none;fillColor=none;align=center;verticalAlign=middle;whiteSpace=wrap;rounded=0;" vertex="1" parent="1">
          <mxGeometry x="310" y="608" width="70" height="20" as="geometry" />
        </mxCell>
        <mxCell id="Agc5lLFJwl8MDmnhifm_-28" value="Build Two" style="text;html=1;strokeColor=none;fillColor=none;align=center;verticalAlign=middle;whiteSpace=wrap;rounded=0;" vertex="1" parent="1">
          <mxGeometry x="310" y="648" width="70" height="20" as="geometry" />
        </mxCell>
        <mxCell id="Agc5lLFJwl8MDmnhifm_-29" value="Build Three" style="text;html=1;strokeColor=none;fillColor=none;align=center;verticalAlign=middle;whiteSpace=wrap;rounded=0;" vertex="1" parent="1">
          <mxGeometry x="310" y="698" width="80" height="20" as="geometry" />
        </mxCell>
        <mxCell id="Agc5lLFJwl8MDmnhifm_-31" value="Final Page" style="text;html=1;strokeColor=none;fillColor=none;align=center;verticalAlign=middle;whiteSpace=wrap;rounded=0;" vertex="1" parent="1">
          <mxGeometry x="355" y="540" width="65" height="20" as="geometry" />
        </mxCell>
        <mxCell id="Agc5lLFJwl8MDmnhifm_-32" value="Build Id" style="text;html=1;strokeColor=none;fillColor=none;align=center;verticalAlign=middle;whiteSpace=wrap;rounded=0;" vertex="1" parent="1">
          <mxGeometry x="310" y="575" width="60" height="20" as="geometry" />
        </mxCell>
        <mxCell id="Agc5lLFJwl8MDmnhifm_-33" value="" style="curved=1;endArrow=classic;html=1;" edge="1" parent="1">
          <mxGeometry width="50" height="50" relative="1" as="geometry">
            <mxPoint x="210" y="340" as="sourcePoint" />
            <mxPoint x="220" y="650" as="targetPoint" />
            <Array as="points">
              <mxPoint x="190" y="585" />
              <mxPoint x="140" y="535" />
            </Array>
          </mxGeometry>
        </mxCell>
      </root>
    </mxGraphModel>
  </diagram>
</mxfile>
